:version 1.10
:name ASF
:units
  mass 1
  length 1
  angle deg
:documentation
  ASF file generated by Kaydara
:root
  axis xyz
  order  tx ty tz rx ry rz
  position 0 0 0
  orientation 0 0 0
:bonedata
  begin
    id 1
    name RightUpLegDummy
    direction -0.718183 -0.695806 0.00816078
    length 4.904
    axis 0 0 0 xyz
  end
  begin
    id 2
    name RightUpLeg
    direction -0.00334265 -0.999142 0.0412837
    length 17.4976
    axis -0.59612 0.00940841 -0.192072 xyz
    dof rx ry rz
  end
  begin
    id 3
    name RightLeg
    direction 0.000365068 -0.988824 -0.149089
    length 16.5821
    axis 6.58657 0.0604092 -0.318554 xyz
    dof rx ry rz
  end
  begin
    id 4
    name RightFoot
    direction 0.00079069 -0.460991 0.887405
    length 3.77069
    axis 0.000105557 -0.120464 -0.188919 xyz
    dof rx ry rz
  end
  begin
    id 5
    name RightToes
    direction 0.00124768 -0.014065 0.9999
    length 3.85082
    axis 0.00053932 0.542178 -0.142707 xyz
    dof rx ry rz
  end
  begin
    id 6
    name SpineDummy
    direction 8.3039e-015 1 4.58682e-016
    length 4.6813
    axis 0 0 0 xyz
  end
  begin
    id 7
    name Spine
    direction 4.12799e-006 0.999988 0.00494944
    length 10.1015
    axis -0.00149944 0.000129667 -0.000235877 xyz
    dof rx ry rz
  end
  begin
    id 8
    name Spine1
    direction 0 0 0
    length 0
    axis -0.00160567 0.000129431 -0.000308381 xyz
    dof rx ry rz
  end
  begin
    id 9
    name HEadDummy
    direction 5.38513e-006 0.999999 0.00127044
    length 3.43865
    axis -0.00160567 0.000129431 -0.000308381 xyz
  end
  begin
    id 10
    name HEad
    direction -0.0226495 0.980942 0.192974
    length 5.12695
    axis -0.00160642 -0.114462 -0.000307946 xyz
    dof rx ry rz
  end
  begin
    id 11
    name LeftShoulder1Dummy
    direction 0.99889 -0.0402564 -0.0244456
    length 3.5433
    axis -0.00160567 0.000129431 -0.000308381 xyz
  end
  begin
    id 12
    name LeftShoulder1
    direction 0.999464 -0.00142945 0.0326977
    length 4.05031
    axis 0.393425 -0.0796525 -0.0507861 xyz
    dof rx ry rz
  end
  begin
    id 13
    name LeftArm
    direction 0.998564 -0.000899612 -0.053557
    length 10.3537
    axis -22.9476 0.126974 0.960871 xyz
    dof rx ry rz
  end
  begin
    id 14
    name LeftForeArm
    direction 0.998903 0.00865904 0.0460121
    length 8.70632
    axis -9.91856 -0.0656997 -0.178106 xyz
    dof rx ry rz
  end
  begin
    id 15
    name LeftHand
    direction 0.992938 -0.0411687 0.11126
    length 5.32135
    axis -0.00981066 -0.00340928 0.18486 xyz
    dof rx ry rz
  end
  begin
    id 16
    name RightShoulderDummy
    direction -0.998891 -0.0402456 -0.0244411
    length 3.5433
    axis -0.00160567 0.000129431 -0.000308381 xyz
  end
  begin
    id 17
    name RightShoulder
    direction -0.999353 -0.00388479 0.0357579
    length 4.05031
    axis 1.48787 0.256014 0.157284 xyz
    dof rx ry rz
  end
  begin
    id 18
    name RightArm
    direction -0.998583 -0.000660455 -0.0532032
    length 10.3947
    axis -22.4211 -0.109147 -0.943573 xyz
    dof rx ry rz
  end
  begin
    id 19
    name RightForeArm
    direction -0.998898 0.00868588 0.0461311
    length 8.68355
    axis -9.92343 0.0658342 0.178556 xyz
    dof rx ry rz
  end
  begin
    id 20
    name RightHand
    direction -0.992843 -0.0414545 0.112004
    length 5.28593
    axis -0.00982288 0.00332907 -0.185539 xyz
    dof rx ry rz
  end
  begin
    id 21
    name LeftUpLegDummy
    direction 0.718183 -0.695806 0.00816078
    length 4.904
    axis 0 0 0 xyz
  end
  begin
    id 22
    name LeftUpLeg
    direction 0.00445374 -0.999139 0.0412407
    length 17.4976
    axis -0.593655 -0.0138231 0.255969 xyz
    dof rx ry rz
  end
  begin
    id 23
    name LeftLeg
    direction -0.00154847 -0.988829 -0.149046
    length 16.5821
    axis 6.5841 -0.0555156 0.250722 xyz
    dof rx ry rz
  end
  begin
    id 24
    name LeftFoot
    direction -0.00417678 -0.460985 0.887398
    length 3.77069
    axis 5.53694e-005 4.88088e-005 -0.000136194 xyz
    dof rx ry rz
  end
  begin
    id 25
    name LeftToes
    direction 0.00818061 -0.00485256 0.999955
    length 3.85048
    axis 6.41179e-005 4.88477e-005 -0.000136145 xyz
    dof rx ry rz
  end
:hierarchy
  begin
    root RightUpLegDummy SpineDummy LeftUpLegDummy
    RightUpLegDummy RightUpLeg
    RightUpLeg RightLeg
    RightLeg RightFoot
    RightFoot RightToes
    SpineDummy Spine
    Spine Spine1
    Spine1 HEadDummy LeftShoulder1Dummy RightShoulderDummy
    HEadDummy HEad
    LeftShoulder1Dummy LeftShoulder1
    LeftShoulder1 LeftArm
    LeftArm LeftForeArm
    LeftForeArm LeftHand
    RightShoulderDummy RightShoulder
    RightShoulder RightArm
    RightArm RightForeArm
    RightForeArm RightHand
    LeftUpLegDummy LeftUpLeg
    LeftUpLeg LeftLeg
    LeftLeg LeftFoot
    LeftFoot LeftToes
  end

:SAMPLES-PER-SECOND 30
:FULLY-SPECIFIED
:DEGREES
107
root  0.147969 40.2649 0.188165 -174.635 -84.8367 174.707
RightUpLeg  3.42594 -6.09293 -9.3088
RightLeg  -3.65939 -9.12419 -0.222558
RightFoot  -1.45244 -0.751226 8.55328
RightToes  6.35927e-011 1.30204e-014 -6.03759e-014
Spine  -1.21358 -0.180435 0.431339
Spine1  5.19936 0.283664 -2.03224
HEad  -2.88099 2.58198 1.71141
LeftShoulder1  2.69805 -6.20424 -21.4379
LeftArm  -5.13096 13.73 -47.3949
LeftForeArm  13.8606 -9.52022 -11.2268
LeftHand  -0.368975 -1.17845 6.66706
RightShoulder  0.959727 0.284112 18.9509
RightArm  6.06036 4.52197 57.1743
RightForeArm  25.6838 2.73344 16.0581
RightHand  -0.337168 -1.69662 -10.4423
LeftUpLeg  5.76364 11.3772 14.06
LeftLeg  -0.262001 23.1238 -0.937132
LeftFoot  -2.40638 0.640366 -7.98186
LeftToes  1.82556e-010 9.56953e-011 7.56925e-011
108
root  0.135259 40.265 0.185595 -174.819 -84.9022 174.912
RightUpLeg  3.43995 -6.02787 -9.23381
RightLeg  -3.66447 -9.27566 -0.256965
RightFoot  -1.50834 -0.725143 8.29543
RightToes  6.35927e-011 1.30204e-014 -6.03759e-014
Spine  -1.2644 -0.158569 0.664517
Spine1  5.12286 0.371281 -2.34909
HEad  -3.14827 2.32525 1.9207
LeftShoulder1  2.6878 -6.20736 -21.3158
LeftArm  -5.32221 13.6311 -47.4573
LeftForeArm  13.211 -9.41671 -11.2755
LeftHand  -0.347018 -1.03569 6.40422
RightShoulder  0.964607 0.288423 19.059
RightArm  7.02674 4.37859 57.3622
RightForeArm  25.0608 3.1278 16.0722
RightHand  -0.29213 -1.96725 -9.66396
LeftUpLeg  5.74389 11.3948 14.0891
LeftLeg  -0.275035 23.0451 -0.93777
LeftFoot  -2.40323 0.639446 -7.95614
LeftToes  1.82556e-010 9.56953e-011 7.56925e-011
109
root  0.130353 40.2633 0.185309 -174.428 -84.9394 174.543
RightUpLeg  3.40958 -6.03256 -9.26711
RightLeg  -3.6276 -9.23894 -0.284598
RightFoot  -1.55335 -0.720933 8.28147
RightToes  6.35927e-011 1.30204e-014 -6.03759e-014
Spine  -1.24313 -0.109143 0.76181
Spine1  4.99009 0.445885 -2.47114
HEad  -3.44626 1.9757 1.79635
LeftShoulder1  2.70185 -6.18684 -21.5328
LeftArm  -5.17105 13.4468 -47.3486
LeftForeArm  13.3058 -9.27662 -11.3598
LeftHand  -0.33257 -1.02354 6.15417
RightShoulder  0.97556 0.339776 18.9982
RightArm  8.64596 3.93907 57.7621
RightForeArm  24.8429 3.67012 16.0984
RightHand  -0.293837 -1.87896 -9.51953
LeftUpLeg  5.72947 11.4075 14.0792
LeftLeg  -0.301724 23.0001 -0.987917
LeftFoot  -2.36984 0.642521 -7.99329
LeftToes  1.82556e-010 9.56953e-011 7.56925e-011
110
root  0.126823 40.2607 0.185477 -173.498 -85.0324 173.595
RightUpLeg  3.36247 -6.12067 -9.35844
RightLeg  -3.43512 -9.26364 -0.309035
RightFoot  -1.65334 -0.712968 8.26584
RightToes  6.35927e-011 1.30204e-014 -6.03759e-014
Spine  -1.06678 -0.125626 0.813782
Spine1  4.69368 0.462037 -2.59112
HEad  -3.55541 2.00524 1.69435
LeftShoulder1  2.67146 -6.09645 -21.4748
LeftArm  -4.97993 13.5153 -47.6025
LeftForeArm  13.9723 -9.25171 -11.3806
LeftHand  -0.376142 -1.76426 6.28
RightShoulder  0.999307 0.41093 19.152
RightArm  10.2721 3.48564 58.0767
RightForeArm  24.6531 3.99078 16.1849
RightHand  -0.27258 -2.06766 -9.2771
LeftUpLeg  5.90081 11.3766 14.0007
LeftLeg  -0.685756 23.0212 -1.17683
LeftFoot  -2.32756 0.637709 -7.90254
LeftToes  1.82556e-010 9.56953e-011 7.56925e-011
111
root  0.114003 40.2676 0.186097 -172.349 -85.0701 172.453
RightUpLeg  3.47178 -6.1596 -9.4752
RightLeg  -3.59731 -9.2946 -0.290786
RightFoot  -1.54106 -0.752538 8.63762
RightToes  6.35927e-011 1.30204e-014 -6.03759e-014
Spine  -1.0864 -0.0703794 0.857299
Spine1  4.58774 0.544458 -2.7598
HEad  -3.65889 2.03106 1.51754
LeftShoulder1  2.71358 -6.1846 -21.6678
LeftArm  -4.74137 13.6143 -47.7397
LeftForeArm  14.3616 -9.11733 -11.4703
LeftHand  -0.332558 -0.993421 6.18321
RightShoulder  0.995445 0.375624 19.2984
RightArm  11.7872 3.11829 58.3911
RightForeArm  24.212 3.96453 16.3661
RightHand  -0.269001 -2.00758 -9.01591
LeftUpLeg  5.81 11.3195 13.8889
LeftLeg  -0.534575 23.0346 -1.11323
LeftFoot  -2.22937 0.641735 -7.93765
LeftToes  1.82556e-010 9.56953e-011 7.56925e-011
112
root  0.108011 40.2649 0.187418 -172.296 -85.1437 172.435
RightUpLeg  3.53522 -6.17719 -9.48205
RightLeg  -3.74066 -9.36193 -0.227034
RightFoot  -1.53431 -0.742299 8.51567
RightToes  6.35927e-011 1.30204e-014 -6.03759e-014
Spine  -1.16389 -0.0431221 0.930275
Spine1  4.5754 0.577793 -2.80142
HEad  -3.60876 2.1242 1.49147
LeftShoulder1  2.74669 -6.26431 -21.786
LeftArm  -4.49537 13.7526 -48.1006
LeftForeArm  14.6967 -9.0747 -11.5345
LeftHand  -0.379597 -1.55698 6.50388
RightShoulder  0.997871 0.363269 19.4555
RightArm  12.1938 2.56158 58.5673
RightForeArm  24.9053 4.02321 16.3605
RightHand  -0.223594 -2.14012 -7.67531
LeftUpLeg  5.84729 11.3251 13.9114
LeftLeg  -0.69013 22.8918 -1.18918
LeftFoot  -2.2489 0.641364 -7.90014
LeftToes  1.82556e-010 9.56953e-011 7.56925e-011
113
root  0.104215 40.2687 0.190297 -172.477 -85.3188 172.694
RightUpLeg  3.46116 -6.16836 -9.44571
RightLeg  -3.66317 -9.5544 -0.202867
RightFoot  -1.51996 -0.748572 8.55898
RightToes  6.35927e-011 1.30204e-014 -6.03759e-014
Spine  -1.2912 -0.0679897 0.951841
Spine1  4.64836 0.542729 -2.74002
HEad  -3.54906 2.29859 1.70238
LeftShoulder1  2.74517 -6.19613 -21.9796
LeftArm  -4.17432 13.8798 -48.3769
LeftForeArm  14.5263 -9.13402 -11.5731
LeftHand  -0.376665 -1.34267 6.65793
RightShoulder  1.016 0.408758 19.6307
RightArm  12.659 2.00404 58.7483
RightForeArm  25.4183 3.92383 16.4306
RightHand  -0.235639 -1.86894 -7.54585
LeftUpLeg  5.79689 11.3025 13.9251
LeftLeg  -0.872574 22.7439 -1.2407
LeftFoot  -2.21624 0.638921 -7.82464
LeftToes  1.82556e-010 9.56953e-011 7.56925e-011
114
root  0.101091 40.2693 0.185942 -172.555 -85.4123 172.752
RightUpLeg  3.6049 -6.16501 -9.44093
RightLeg  -3.84186 -9.66002 -0.150383
RightFoot  -1.43104 -0.766968 8.70898
RightToes  6.35927e-011 1.30204e-014 -6.03759e-014
Spine  -1.24351 -0.0231185 0.825093
Spine1  4.68956 0.578114 -2.6734
HEad  -3.41008 2.48456 3.34725
LeftShoulder1  2.73992 -6.14386 -22.0841
LeftArm  -3.65067 13.9293 -48.816
LeftForeArm  14.1713 -9.09939 -11.7018
LeftHand  -0.303167 -0.437226 6.11763
RightShoulder  1.04909 0.51536 19.772
RightArm  14.1066 1.18198 58.91
RightForeArm  24.293 4.39752 16.4588
RightHand  -0.242763 -1.87794 -7.80701
LeftUpLeg  5.83756 11.297 13.9451
LeftLeg  -0.965586 22.6503 -1.2508
LeftFoot  -2.16839 0.643204 -7.84674
LeftToes  1.82556e-010 9.56953e-011 7.56925e-011
115
root  0.109614 40.2679 0.175307 -172.92 -85.5292 173.031
RightUpLeg  3.84292 -6.1628 -9.38783
RightLeg  -4.10296 -9.72965 -0.0703593
RightFoot  -1.47307 -0.723164 8.24582
RightToes  6.35927e-011 1.30204e-014 -6.03759e-014
Spine  -1.06155 0.0585534 0.294262
Spine1  4.96816 0.614994 -2.36387
HEad  -4.81297 2.42521 6.81446
LeftShoulder1  2.73104 -6.1744 -21.8918
LeftArm  -4.21401 13.8615 -49.7489
LeftForeArm  14.9064 -8.82233 -11.7399
LeftHand  -0.305458 -0.618379 6.00759
RightShoulder  1.05376 0.503096 19.9858
RightArm  15.4766 0.606451 58.924
RightForeArm  23.4785 4.92483 16.435
RightHand  -0.231572 -2.01984 -7.72407
LeftUpLeg  5.90892 11.2875 13.9947
LeftLeg  -1.04009 22.5483 -1.22532
LeftFoot  -2.10439 0.647581 -7.85318
LeftToes  1.82556e-010 9.56953e-011 7.56925e-011
